<svg width="560" height="156" viewBox="0 0 560 156" fill="none" xmlns="http://www.w3.org/2000/svg">
<path d="M268.277 124.207H287.683L279.291 155.958H259.885L268.277 124.207Z" fill="black"/>
<path d="M47.2596 14.1242H67.1898L114.761 123.444H87.5735L78.1471 99.9983H35.6786L26.5641 123.444H0L47.2596 14.1242ZM56.5301 45.8326L43.2481 79.688H69.9681L56.5301 45.8326Z" fill="black"/>
<path d="M129.475 14.3077L152.651 0V123.331L129.489 137.272V14.3077H129.475Z" fill="black"/>
<path d="M177.16 46.0443H198.479V57.739H198.791C199.712 56.4113 200.932 55.0413 202.42 53.6571C203.908 52.273 205.666 51.0159 207.665 49.886C209.678 48.7561 211.86 47.838 214.228 47.1177C216.595 46.3974 219.118 46.0443 221.797 46.0443C227.354 46.0443 232.4 46.9906 236.936 48.8973C241.472 50.8041 245.356 53.4594 248.602 56.9056C251.848 60.3378 254.343 64.4196 256.087 69.1371C257.83 73.8545 258.709 79.038 258.709 84.6877C258.709 89.9135 257.915 94.9276 256.313 99.6874C254.712 104.461 252.458 108.684 249.524 112.385C246.589 116.071 243.202 118.345 238.977 120.549C234.753 122.752 229.962 123.854 224.618 123.854C219.77 123.854 215.277 123.105 211.109 121.622C206.942 120.139 203.327 118.275 200.648 114.687H200.336V156H177.174V46.0443H177.16ZM198.479 85.2809C198.479 90.9305 200.095 95.4925 203.341 98.9812C206.587 102.47 211.138 104.207 217.006 104.207C222.874 104.207 227.425 102.47 230.671 98.9812C233.917 95.4925 235.533 90.9305 235.533 85.2809C235.533 79.6454 233.917 75.0692 230.671 71.5805C227.425 68.0919 222.874 66.3546 217.006 66.3546C211.138 66.3546 206.587 68.106 203.341 71.5805C200.095 75.0833 198.479 79.6454 198.479 85.2809Z" fill="black"/>
<path d="M312.234 14.1242H336.331V123.444H312.234V14.1242Z" fill="black"/>
<path d="M360.826 46.2136H383.067V58.2191H383.379C384.102 56.7784 385.122 55.3519 386.469 53.9112C387.801 52.4706 389.403 51.1994 391.26 50.0695C393.117 48.9396 395.215 48.0215 397.596 47.3012C399.964 46.5808 402.543 46.2277 405.322 46.2277C411.19 46.2277 415.925 47.1317 419.525 48.9254C423.126 50.7192 425.932 53.205 427.945 56.3829C429.958 59.5608 431.319 63.3037 432.042 67.6116C432.765 71.9194 433.119 76.5945 433.119 81.6226V123.345H409.943V86.2271C409.943 84.0661 409.872 81.8345 409.716 79.5323C409.56 77.23 409.092 75.0973 408.327 73.1482C407.561 71.1991 406.371 69.603 404.769 68.3743C403.167 67.1455 400.885 66.524 397.894 66.524C394.903 66.524 392.493 67.0607 390.636 68.1341C388.779 69.2076 387.362 70.6482 386.384 72.442C385.406 74.2357 384.768 76.2696 384.456 78.5153C384.144 80.7752 383.988 82.7667 383.988 85.2242V123.317H360.826V46.2136Z" fill="black"/>
<path d="M503.285 71.7502C502.165 70.1401 500.606 68.7983 498.579 67.739C496.552 66.6797 494.383 66.1571 492.059 66.1571C486.289 66.1571 481.824 67.8661 478.635 71.2983C475.445 74.7304 473.858 79.2077 473.858 84.7585C473.858 90.2951 475.445 94.7866 478.635 98.2187C481.824 101.651 486.289 103.36 492.059 103.36C494.582 103.36 496.765 102.809 498.579 101.693C500.394 100.592 501.967 99.278 503.285 97.7667L518.311 113.487C514.767 117.117 510.6 119.659 505.794 121.114C500.989 122.569 496.41 123.303 492.059 123.303C486.389 123.303 481.059 122.399 476.055 120.577C471.051 118.769 466.699 116.17 463.014 112.795C459.314 109.419 456.408 105.365 454.296 100.62C452.17 95.8882 451.107 90.5917 451.107 84.7444C451.107 78.897 452.17 73.6146 454.296 68.8689C456.423 64.1374 459.328 60.0838 463.014 56.694C466.699 53.3183 471.051 50.7195 476.055 48.9116C481.059 47.1038 486.389 46.1857 492.059 46.1857C496.41 46.1857 500.989 46.9201 505.794 48.3749C510.6 49.8438 514.767 52.3862 518.311 56.0019L503.285 71.7502Z" fill="black"/>
<path d="M534.939 111.509C534.939 109.786 535.25 108.162 535.888 106.622C536.526 105.083 537.405 103.755 538.539 102.611C539.673 101.481 541.006 100.591 542.565 99.97C544.11 99.3344 545.74 99.0237 547.469 99.0237C549.199 99.0237 550.829 99.3485 552.374 99.97C553.919 100.606 555.251 101.481 556.4 102.611C557.534 103.741 558.427 105.083 559.05 106.622C559.688 108.162 560 109.786 560 111.509C560 113.232 559.674 114.857 559.05 116.396C558.413 117.936 557.534 119.278 556.4 120.407C555.266 121.537 553.919 122.427 552.374 123.049C550.829 123.684 549.199 123.995 547.469 123.995C545.74 123.995 544.11 123.67 542.565 123.049C541.02 122.413 539.673 121.537 538.539 120.407C537.405 119.278 536.512 117.936 535.888 116.396C535.25 114.871 534.939 113.232 534.939 111.509Z" fill="black"/>
</svg>
